<?xml version="1.0" standalone="no"?>
<!DOCTYPE svg PUBLIC "-//W3C//DTD SVG 20010904//EN"
 "http://www.w3.org/TR/2001/REC-SVG-20010904/DTD/svg10.dtd">
<svg version="1.0" xmlns="http://www.w3.org/2000/svg"
 width="300.000000pt" height="168.000000pt" viewBox="0 0 300.000000 168.000000"
 preserveAspectRatio="xMidYMid meet">

<g transform="translate(0.000000,168.000000) scale(0.100000,-0.100000)"
fill="#000000" stroke="none">
<path d="M2290 1523 c-12 -9 -49 -71 -81 -140 -78 -166 -108 -176 -120 -37 -6
82 -19 105 -47 88 -22 -14 -58 -122 -67 -203 l-7 -64 28 9 c16 5 63 9 104 9
63 0 85 -5 135 -29 75 -37 139 -105 166 -176 17 -45 20 -70 16 -135 -3 -44 -8
-90 -12 -101 -6 -20 -2 -23 42 -28 59 -8 185 8 236 31 28 12 37 22 37 40 0 32
-47 51 -145 60 -42 3 -78 10 -81 15 -17 27 12 62 119 141 105 79 207 175 207
195 0 5 -7 15 -15 22 -21 17 -66 5 -177 -51 -54 -27 -104 -49 -112 -49 -41 0
-26 42 63 179 44 68 61 104 61 128 0 70 -69 34 -203 -106 -43 -44 -84 -81 -91
-81 -22 0 -25 34 -10 137 20 139 6 182 -46 146z"/>
<path d="M1945 1150 c-38 -14 -111 -88 -139 -141 -41 -75 -47 -175 -16 -259
27 -73 100 -152 168 -182 103 -46 236 -32 329 34 38 28 102 104 92 111 -2 1
-31 12 -65 24 l-61 21 -28 -29 c-45 -49 -83 -63 -161 -64 -60 0 -76 4 -112 27
-80 53 -118 161 -88 247 8 25 12 49 9 54 -3 6 -1 7 4 4 14 -9 37 19 28 32 -3
6 0 9 7 6 7 -2 25 6 40 18 25 20 27 27 20 63 -6 36 -10 40 -27 34z"/>
<path d="M1995 1070 c-21 -33 131 -226 217 -277 36 -21 38 -21 48 -4 17 33 22
96 10 139 -13 51 -72 119 -117 139 -38 15 -149 18 -158 3z"/>
<path d="M677 873 c-4 -3 -7 -73 -7 -153 0 -119 3 -150 15 -160 12 -10 18 -10
30 0 20 16 22 289 3 308 -13 13 -31 16 -41 5z"/>
<path d="M777 873 c-4 -3 -7 -75 -7 -159 0 -118 3 -153 13 -157 22 -8 34 5 41
44 4 21 13 42 21 49 12 10 21 2 50 -45 25 -39 41 -55 52 -51 8 3 17 6 19 6 14
0 -1 39 -32 86 l-37 55 28 29 c28 29 29 60 2 60 -7 0 -31 -18 -52 -40 -21 -22
-42 -40 -45 -40 -3 0 -6 31 -6 68 0 38 -3 76 -7 85 -6 17 -28 23 -40 10z"/>
<path d="M192 848 c3 -20 10 -23 51 -26 l47 -3 0 -123 c0 -98 3 -126 15 -136
12 -10 18 -10 30 0 12 10 15 38 15 136 l0 123 48 3 c40 3 47 6 50 26 3 22 3
22 -128 22 -131 0 -131 0 -128 -22z"/>
<path d="M457 770 c-51 -40 -58 -130 -14 -178 51 -55 187 -42 187 19 0 24 -17
24 -55 -1 -39 -26 -51 -25 -80 5 -39 38 -32 45 49 45 89 0 104 11 86 65 -21
62 -118 88 -173 45z m107 -36 c31 -31 20 -44 -39 -44 -47 0 -54 2 -48 18 16
44 57 57 87 26z"/>
<path d="M1041 777 c-34 -20 -50 -55 -51 -108 0 -58 27 -95 80 -109 52 -14
114 10 136 53 23 43 13 112 -19 145 -31 30 -108 40 -146 19z m99 -47 c39 -39
16 -130 -33 -130 -31 0 -44 11 -57 44 -12 32 -6 62 18 89 20 23 47 22 72 -3z"/>
<path d="M1266 774 c-3 -9 -6 -55 -6 -104 0 -66 4 -92 15 -104 30 -30 43 -9
47 74 4 89 23 124 56 104 13 -9 18 -28 20 -90 2 -58 7 -82 18 -91 31 -23 44
-5 44 62 0 73 11 109 36 119 32 12 44 -12 44 -94 0 -57 4 -81 15 -90 12 -10
18 -10 30 0 11 9 15 35 15 101 0 76 -3 92 -20 109 -23 23 -76 26 -104 5 -16
-12 -21 -12 -40 0 -26 19 -66 19 -93 0 -19 -13 -22 -13 -27 0 -7 20 -42 19
-50 -1z"/>
<path d="M951 457 c-6 -6 -11 -33 -11 -59 l0 -49 -31 17 c-61 31 -128 -4 -144
-76 -7 -33 9 -96 33 -122 23 -27 77 -33 108 -13 24 16 26 16 38 -1 8 -10 20
-15 30 -11 14 6 16 27 16 161 0 121 -3 155 -14 159 -7 3 -19 0 -25 -6z m-25
-162 c23 -55 0 -105 -47 -105 -39 0 -64 38 -55 85 13 67 77 80 102 20z"/>
<path d="M410 305 c0 -130 3 -157 15 -161 8 -4 22 -1 30 6 13 11 15 38 13 159
l-3 146 -27 3 -28 3 0 -156z"/>
<path d="M2060 436 c0 -21 5 -26 26 -26 21 0 25 4 22 23 -2 14 -11 23 -25 25
-19 3 -23 -1 -23 -22z"/>
<path d="M527 373 c-4 -3 -7 -55 -7 -115 0 -88 3 -110 15 -114 31 -12 45 15
45 90 0 79 9 96 51 96 32 0 39 -18 39 -113 0 -72 14 -93 45 -67 19 16 20 154
2 190 -18 35 -66 47 -108 26 -29 -15 -34 -15 -41 -1 -9 16 -30 20 -41 8z"/>
<path d="M1092 365 c-55 -24 -78 -105 -47 -165 35 -68 135 -79 188 -20 50 56
35 155 -28 184 -40 19 -70 20 -113 1z m106 -68 c29 -60 -19 -133 -70 -106 -13
7 -26 17 -30 23 -11 16 -10 60 2 91 9 23 15 26 47 23 30 -2 41 -9 51 -31z"/>
<path d="M1327 373 c-4 -3 -7 -55 -7 -115 0 -88 3 -110 15 -114 30 -12 45 15
45 83 0 79 11 103 49 103 35 0 41 -13 41 -95 0 -76 6 -95 30 -95 25 0 30 19
30 109 0 90 -14 117 -65 127 -25 4 -43 1 -61 -11 -25 -16 -28 -16 -36 -1 -9
16 -30 21 -41 9z"/>
<path d="M1614 346 c-30 -30 -34 -40 -34 -85 0 -42 5 -56 29 -83 26 -30 35
-33 84 -33 45 0 60 5 81 24 14 14 26 28 26 33 0 19 -31 19 -56 -1 -33 -26 -66
-27 -87 -3 -36 39 -23 51 60 54 66 3 78 6 81 21 6 30 -19 77 -49 92 -49 26
-97 19 -135 -19z m110 -22 c31 -30 20 -44 -34 -44 -54 0 -62 10 -33 42 20 22
46 23 67 2z"/>
<path d="M1868 365 c-61 -34 -42 -95 36 -117 50 -14 71 -31 63 -52 -10 -25
-60 -20 -86 8 -25 26 -51 25 -51 -4 0 -34 38 -55 102 -55 51 0 63 4 79 24 41
51 17 91 -70 117 -39 11 -51 19 -49 32 5 26 47 27 73 2 25 -23 55 -21 55 3 0
43 -101 71 -152 42z"/>
<path d="M2065 370 c-12 -19 -9 -210 3 -222 6 -6 18 -8 27 -5 13 6 15 24 13
119 -3 96 -6 113 -20 116 -9 2 -19 -2 -23 -8z"/>
<path d="M2200 373 c-27 -10 -50 -36 -50 -54 0 -30 20 -32 49 -5 37 36 91 33
91 -4 0 -13 -13 -21 -52 -30 -77 -18 -98 -34 -98 -75 0 -58 61 -83 124 -50 26
14 31 14 47 -1 28 -25 53 -11 45 27 -3 18 -6 57 -6 89 0 78 -19 101 -86 106
-27 2 -56 1 -64 -3z m90 -137 c0 -46 -61 -76 -89 -43 -15 19 6 43 49 55 19 6
36 11 38 11 1 1 2 -10 2 -23z"/>
</g>
</svg>
